<svg width="50" height="50" viewBox="0 0 50 50" fill="none" xmlns="http://www.w3.org/2000/svg">
<path d="M25.0001 37.9417C26.8987 37.9417 28.4952 37.2458 29.7897 35.8542C31.0841 34.4625 31.7313 32.7944 31.7313 30.85V21.3125H29.648V30.8479C29.648 32.2076 29.2022 33.3819 28.3105 34.3708C27.4188 35.3597 26.3154 35.8556 25.0001 35.8583C23.6945 35.8583 22.5931 35.3632 21.6959 34.3729C20.8001 33.384 20.3522 32.2097 20.3522 30.85V19.4708C20.3522 18.9181 20.523 18.4389 20.8647 18.0333C21.2063 17.6306 21.6369 17.4292 22.1563 17.4292C22.6813 17.4292 23.1133 17.6306 23.4522 18.0333C23.7911 18.4361 23.9598 18.9153 23.9584 19.4708V30.85H26.0417V19.4708C26.0417 18.3597 25.6716 17.3944 24.9313 16.575C24.1911 15.7556 23.2654 15.3458 22.1542 15.3458C21.0431 15.3458 20.1181 15.7556 19.3792 16.575C18.6404 17.3944 18.2702 18.3597 18.2688 19.4708V30.85C18.2688 32.7944 18.9181 34.4625 20.2167 35.8542C21.514 37.2458 23.1084 37.9417 25.0001 37.9417ZM10.4167 43.75V6.25H30.6876L39.5834 15.1458V43.75H10.4167ZM12.5001 41.6667H37.5001V16.1875H29.6459V8.33333H12.5001V41.6667Z" fill="white"/>
</svg>
