<svg width="86" height="86" viewBox="0 0 86 86" fill="none" xmlns="http://www.w3.org/2000/svg">
<path fill-rule="evenodd" clip-rule="evenodd" d="M43 86C40.4736 86 38.4068 83.9332 38.4068 81.4068V71.6033V47.5932H14.3967H4.59321C2.06664 47.5932 0 45.5264 0 43C0 40.4736 2.06664 38.4068 4.59321 38.4068H14.3967H38.4068V14.3967V4.59321C38.4068 2.06664 40.4734 0 43 0C45.5264 0 47.5932 2.06664 47.5932 4.59321V14.3967V38.4068H71.6033H81.4068C83.9332 38.4068 86 40.4734 86 43C86 45.5264 83.9332 47.5932 81.4068 47.5932H71.6033H47.5932V71.6033V81.4068C47.5932 83.9332 45.5264 86 43 86Z" fill="#75BACD"/>
</svg>
